# xmcd
#
# Track frame offsets:
#	150
#	15542
#	35214
#	49227
#	66904
#	87305
#	108632
#	118777
#	138384
#	157646
#	173261
#	191354
#
# Disc length: 2779 seconds
#
# Revision: 1
# Processed by: cddbd v1.5.2PL0 Copyright (c) Steve Scherf et al.
# Submitted via: audiograbber 1.83.01
#
DISCID=990ad90c
DTITLE=Deirdre Bonner - Remember When
DYEAR=2007
DGENRE=
TTITLE0=Somedays Are Diamonds, Somedays Are Stone
TTITLE1=Gentle On My Mind
TTITLE2=Wild Flowers (Don't Care Where They Grow)
TTITLE3=Infamous Angel
TTITLE4=These Four Walls
TTITLE5=Who Will Watch The Homeplace
TTITLE6=Silver Threads And Golden Needles
TTITLE7=Remember When
TTITLE8=Just A Few Old Memories
TTITLE9=Love Is The Foundation
TTITLE10=The Phoenix
TTITLE11=Remember Those Who Had To Fly Away
EXTD=
EXTT0=
EXTT1=
EXTT2=
EXTT3=
EXTT4=
EXTT5=
EXTT6=
EXTT7=
EXTT8=
EXTT9=
EXTT10=
EXTT11=
PLAYORDER=
